<mxfile host="app.diagrams.net" modified="2024-05-30T04:38:28.779Z" agent="Mozilla/5.0 (Windows NT 10.0; Win64; x64) AppleWebKit/537.36 (KHTML, like Gecko) Chrome/125.0.0.0 Safari/537.36" version="23.0.1" etag="5i_T41ebF8rqQB5eCiwV" type="github">
  <diagram name="Page-1" id="nNy9m1PqDlQDQ8bfu11c">
    <mxGraphModel>
      <root>
        <mxCell id="0" />
        <mxCell id="1" parent="0" />
      </root>
    </mxGraphModel>
  </diagram>
</mxfile>
